<?xml version="1.0" standalone="no"?>
<!DOCTYPE svg PUBLIC "-//W3C//DTD SVG 20010904//EN"
 "http://www.w3.org/TR/2001/REC-SVG-20010904/DTD/svg10.dtd">
<svg version="1.0" xmlns="http://www.w3.org/2000/svg"
 width="200.000000pt" height="200.000000pt" viewBox="0 0 200.000000 200.000000"
 preserveAspectRatio="xMidYMid meet">
<metadata>
Created by potrace 1.11, written by Peter Selinger 2001-2013
</metadata>
<g transform="translate(0.000000,200.000000) scale(0.100000,-0.100000)"
fill="#000000" stroke="none">
<path d="M821 1978 c-10 -3 -35 -35 -55 -70 -47 -83 -54 -91 -101 -113 -72
-34 -165 -22 -226 29 -55 47 -87 31 -164 -82 -33 -47 -86 -124 -117 -170 -32
-46 -58 -89 -58 -97 0 -7 24 -24 54 -38 102 -48 150 -109 195 -246 58 -178 43
-431 -36 -589 -32 -66 -47 -84 -103 -124 -91 -67 -110 -84 -110 -100 0 -15
169 -250 223 -311 27 -30 41 -37 70 -37 30 0 41 7 68 40 63 78 156 117 255
107 75 -8 140 -41 171 -88 33 -50 68 -72 118 -73 49 -1 89 23 117 69 13 23 40
44 79 64 53 26 69 30 128 27 107 -5 172 -41 254 -140 39 -47 60 -33 167 110
190 255 188 246 60 324 -116 70 -183 253 -179 492 3 232 62 368 194 454 100
66 102 80 26 174 -20 25 -49 63 -64 86 -15 22 -35 49 -45 60 -9 10 -29 35 -44
55 -45 61 -73 64 -162 19 -87 -43 -143 -46 -201 -10 -41 25 -83 80 -91 117 -3
15 -12 37 -20 48 -14 19 -26 20 -200 20 -102 0 -193 -3 -203 -7z"/>
</g>
</svg>
