<?xml version="1.0" encoding="iso-8859-1"?>
<!-- Generator: Adobe Illustrator 19.0.0, SVG Export Plug-In . SVG Version: 6.00 Build 0)  -->
<svg version="1.1" id="Capa_1" xmlns="http://www.w3.org/2000/svg" xmlns:xlink="http://www.w3.org/1999/xlink" x="0px" y="0px"
	 viewBox="0 0 511.999 511.999" style="enable-background:new 0 0 511.999 511.999;" xml:space="preserve">
<g>
	<g>
		<path d="M461.331,353.293c-49.598-13.4-84.237-58.69-84.237-110.138s34.641-96.738,84.24-110.138
			c4.632-1.251,8.387-4.644,10.1-9.126s1.178-9.513-1.438-13.536l-40.303-61.943c-3.62-5.563-10.462-8.087-16.826-6.204
			c-8.993,2.659-18.36,4.007-27.842,4.007c-31.089,0-60.646-14.986-79.068-40.087c-2.825-3.851-7.316-6.125-12.092-6.125L218.132,0
			h-0.001c-4.776,0-9.268,2.275-12.093,6.125c-18.422,25.104-47.98,40.09-79.07,40.09c-9.481,0-18.849-1.348-27.842-4.007
			c-6.365-1.885-13.207,0.642-16.826,6.205l-40.297,61.946c-2.617,4.022-3.151,9.053-1.438,13.535s5.467,7.874,10.1,9.125
			c49.596,13.4,84.234,58.69,84.234,110.136c0,51.446-34.639,96.736-84.234,110.137c-4.525,1.223-8.218,4.489-9.983,8.831
			c-1.765,4.341-1.399,9.259,0.988,13.291l38.961,65.808c0.188,0.563,0.411,1.121,0.671,1.672
			c3.534,7.495,12.476,10.704,19.964,7.171c14.032-6.615,29.082-9.97,44.733-9.97c41.622,0,79.323,24.576,96.138,62.642
			c0.953,2.304,2.487,4.389,4.544,6.018c2.726,2.16,6.019,3.244,9.316,3.244c3.164-0.001,6.332-0.999,9.002-3.001
			c2.203-1.652,3.843-3.819,4.846-6.229c16.808-38.083,54.519-62.673,96.152-62.673c15.65,0,30.7,3.354,44.732,9.97
			c4.646,2.191,10.09,1.852,14.429-0.899c2.961-1.878,5.126-4.7,6.202-7.937l38.967-65.813c2.388-4.033,2.754-8.95,0.988-13.292
			S465.856,354.515,461.331,353.293z M410.491,417.591c-14.233-4.979-29.145-7.496-44.495-7.496
			c-44.208,0-84.977,21.57-109.999,56.664c-25.023-35.098-65.789-56.664-109.999-56.664c-15.351,0-30.263,2.517-44.495,7.496
			l-24.661-41.654c52.682-22.227,88.057-74.361,88.057-132.781c0-58.146-35.047-110.067-87.32-132.468l24.058-36.982
			c8.306,1.668,16.787,2.51,25.332,2.51c38.008,0,74.259-17.144,98.466-46.215l61.127,0.002
			c24.207,29.071,60.457,46.213,98.464,46.213c8.545,0,17.027-0.842,25.333-2.51l24.061,36.98
			c-52.276,22.4-87.324,74.321-87.324,132.47c0,58.421,35.376,110.557,88.06,132.782L410.491,417.591z"/>
	</g>
</g>
<g>
</g>
<g>
</g>
<g>
</g>
<g>
</g>
<g>
</g>
<g>
</g>
<g>
</g>
<g>
</g>
<g>
</g>
<g>
</g>
<g>
</g>
<g>
</g>
<g>
</g>
<g>
</g>
<g>
</g>
</svg>
